<svg xmlns="http://www.w3.org/2000/svg" viewBox="0 0 512 512" width="512" height="512">
  <rect width="512" height="512" rx="96" fill="#403eba"/>
  <path d="M310.5 147.2c-14.8-10.4-33.6-15.6-56.4-15.6-18.8 0-33.6 4.2-44.4 12.6-10.8 8.4-16.2 19.2-16.2 32.4 0 10 2.8 18.2 8.4 24.6 5.6 6.4 12.6 11.4 21 15 8.4 3.6 20.4 7.8 36 12.6 18.8 5.8 33.8 11.4 45 16.8 11.2 5.4 20.8 13.4 28.8 24 8 10.6 12 24.4 12 41.4 0 15.2-4.2 28.8-12.6 40.8-8.4 12-20.6 21.4-36.6 28.2-16 6.8-34.8 10.2-56.4 10.2-24.4 0-45.6-4.4-63.6-13.2-18-8.8-31.6-20.8-40.8-36l38.4-26.4c8 12 18.2 21.2 30.6 27.6 12.4 6.4 25.8 9.6 40.2 9.6 19.2 0 34.4-4.4 45.6-13.2 11.2-8.8 16.8-20.2 16.8-34.2 0-10.4-2.8-18.8-8.4-25.2-5.6-6.4-12.8-11.6-21.6-15.6-8.8-4-21-8.4-36.6-13.2-18.4-5.6-33-11-43.8-16.2-10.8-5.2-20-12.8-27.6-22.8-7.6-10-11.4-23-11.4-39 0-14.8 4-28 12-39.6 8-11.6 19.4-20.6 34.2-27 14.8-6.4 32-9.6 51.6-9.6 20.8 0 39.4 3.8 55.8 11.4 16.4 7.6 29.2 18.2 38.4 31.8L310.5 147.2z" fill="#ffffff"/>
</svg>
