<?xml version="1.0" encoding="UTF-8"?>
<!-- Created with Inkscape (http://www.inkscape.org/) -->
<svg width="1737.4" height="510.47" version="1.1" viewBox="0 0 1737.4 510.47" xmlns="http://www.w3.org/2000/svg">
 <g transform="translate(-504.17 -492.32)">
  <path d="m1964.7 1001.3c-8.2061-1.2156-20.218-4.8376-26.299-7.9298-25.507-12.971-17.741-42.861 14.549-56 4.264-1.735 4.1601-1.9944-2.384-5.9564-17.313-10.482-8.0125-36.013 16.938-46.495 0.7314-0.3073 0.031-1.3902-1.8039-2.7877-16.937-12.901-19.372-37.501-5.5366-55.914 20.675-27.516 65.366-37.28 93.191-20.36l5.6542 3.4382 5.8458-1.909c3.2152-1.05 10.796-3.9378 16.846-6.4174 19.455-7.9737 20.713-7.513 17.933 6.5658-2.1441 10.857-1.97 10.756-18.624 10.756-7.5948 0-13.809 0.2267-13.809 0.5037s0.8838 2.1525 1.964 4.1679c10.199 19.03-2.4872 47.132-26.99 59.788-16.467 8.5047-28.736 10.124-52.354 6.9076l-11.993-1.633-2.8133 3.1488c-8.3966 9.3974-0.9712 13.426 36.187 19.633 49.441 8.2591 60.5 15.294 60.5 38.484 0 34.727-52.243 60.121-107 52.01zm43.32-11.472c18.23-3.8349 27.608-11.04 30.208-23.21 2.6045-12.193-4.856-16.051-46.134-23.862-29.015-5.4899-27.011-5.5018-31.354 0.1856-12.317 16.132-6.8961 38.427 11.04 45.403 7.8453 3.0514 25.373 3.7683 36.24 1.4823zm5.4907-108.89c21.598-9.0241 30.105-62.101 11.378-70.988-17.91-8.4989-34.25 10.549-36.325 42.344-1.54 23.601 8.7473 35.413 24.947 28.644zm-1443.8 83.278c-29.204-1.8759-54.508-22.134-63.166-50.569-2.6486-8.699-3.3714-352.44-0.76598-364.24 6.6378-30.076 29.363-51.973 58.024-55.91 12.653-1.7379 364.01-1.3932 374.27 0.3671 26.518 4.5496 47.845 25.403 55.136 53.912 3.1814 12.439 3.1746 351.91-0.01 363.35-7.664 27.564-30.365 47.966-57.987 52.116-7.9725 1.1977-347.92 2.1071-365.5 0.9777zm254.5-87.568c8.4576-2.1908 15.144-7.2374 32.098-24.225 24.261-24.309 25.902-27.77 25.902-54.656 0-30.803-4.7246-41.651-26.196-60.146-5.6368-4.8554-11.611-10.126-13.276-11.712-3.6521-3.4784-34.133-30.865-51.327-46.116-6.8205-6.05-14.129-12.243-16.24-13.763l-3.8396-2.7629-70.291 0.5257 17.69 15.404c9.7292 8.4721 18.43 16.155 19.335 17.073 0.90512 0.9179 8.6207 7.7092 17.146 15.092 22.673 19.635 49.848 43.796 63.085 56.09l11.585 10.759 0.2345 25.041 0.23451 25.041h-81.07c-76.496 0-81.077-0.099-81.191-1.75-0.0668-0.9625-0.17932-10.75-0.25-21.75l-0.12851-20-51.629-0.534 0.31466 17.295 0.31466 17.295 3.3837 6.8665c8.684 17.622 44.841 49.199 59.029 51.551 9.1088 1.51 139.01 0.956 145.09-0.6188zm-30-83.198c0-0.4641-3.4875-3.8266-7.75-7.4722-4.2625-3.6457-9.3673-8.1036-11.344-9.9063-1.9767-1.8028-10.05-8.9028-17.941-15.778-7.891-6.875-17.074-15.021-20.406-18.102-3.3323-3.0811-13.259-11.826-22.059-19.434-18.901-16.34-38.324-33.503-43.697-38.614l-3.8372-3.6496 0.26708-25.85 0.26709-25.85h75c41.25 0 77.812 0.1525 81.25 0.3389l6.25 0.3388v42.847l51.999-0.5246 7.1e-4 -14.04c1e-3 -24.361-2.3469-29.409-24.127-51.873-15.584-16.073-22.081-21.223-32.103-25.445l-6.2694-2.6416-64.5-0.099c-91.991-0.1412-86.247-1.5725-115.52 28.786-23.501 24.376-23.766 25.051-23.311 59.513 0.4402 33.341 1.1787 34.86 28.687 58.992 8.6024 7.5467 21.463 18.916 28.58 25.264 7.1166 6.3488 21.211 18.856 31.321 27.793l18.382 16.25h35.429c19.486 0 35.429-0.3797 35.429-0.8437zm390.5 150.15c-22.268-2.9016-52.503-13.022-52.499-17.572 6e-4 -0.6806 0.9001-8.2125 1.9989-16.738 1.0987-8.525 1.9982-17.412 1.9989-19.75v-4.25h5.5314c3.5732 0 5.6543 0.4425 5.8786 1.25 9.8085 35.304 21.072 46.25 47.59 46.25 19.146 0 28.846-5.4918 34.022-19.261 7.0555-18.772 0.4114-32.66-22.471-46.972-35.962-22.493-46.442-32.461-51.566-49.05-14.252-46.144 39.376-80.506 101.79-65.223 9.6356 2.3592 25.307 7.7583 26.772 9.2235 0.1963 0.1962-1.0849 9.2468-2.8469 20.112l-3.2037 19.756-9.5285-0.5858-4.3387-12.764c-8.0777-23.764-14.851-29.19-36.192-28.999-23.275 0.2087-37.112 12.782-35.136 31.927 1.3166 12.757 7.0298 18.148 43.836 41.362 28.006 17.664 36.761 29.946 36.834 51.674 0.1336 39.344-39.43 65.999-88.476 59.609zm136.12-0.4218c-41.547-9.7537-38.031-75.544 6.26-117.11 25.377-23.815 52.174-33.127 75.622-26.279 13.35 3.8989 12.99 3.8981 26.92 0.06 7.1063-1.9577 13.294-3.5594 13.75-3.5594 2.2713 0 0.8138 6.8762-18.229 86-7.4418 30.921-7.2849 30.012-6.0005 34.782 2.1078 7.8278 8.2964 7.0908 17.839-2.1245 4.1614-4.0185 4.3562-4.0912 7-2.6139 5.3616 2.996 4.3664 6.3778-4.3083 14.641-27.857 26.534-64.767 21.005-62.252-9.3255 0.5223-6.2986 0.097-6.5453-3.1248-1.8142-12.581 18.473-37.34 31.132-53.478 27.343zm41.301-28.836c14.595-9.3654 18.218-16.438 27.438-53.552 10.563-42.522 10.638-45.338 1.3322-50.166-11.647-6.0434-28.674 1.6548-39.908 18.044-30.128 43.953-21.945 106.9 11.138 85.675zm123.29 28.123c-16.863-6.0457-22.542-21.117-16.887-44.821 1.4241-5.9699 3.0486-13.329 3.6099-16.354 0.5614-3.025 3.3122-15.4 6.113-27.5 6.0881-26.302 6.2503-28.953 2.0037-32.75-1.6917-1.5125-3.932-2.75-4.9783-2.75-3.7988 0-5.066-1.1454-5.066-4.579 0-4.1047 0.076-4.1296 33-10.852 12.375-2.5265 23.522-4.8242 24.772-5.1061 1.5241-0.3438 2.4798 0.029 2.9032 1.1325 0.571 1.4878-6.7578 33.026-15.199 65.404-10.156 38.96-10.642 49.496-2.4765 53.786 9.1177 4.7901 31.086-6.1158 36.541-18.14 2.1832-4.8123 11.993-46.333 20.116-85.145 2.2631-10.813 2.4645-11.109 8.0509-11.831 2.6356-0.3407 11.976-1.7338 20.757-3.0958 8.7809-1.362 16.09-2.3517 16.242-2.1993 0.1523 0.1523-0.7848 4.518-2.0826 9.7015-1.2977 5.1835-3.3612 14.15-4.5854 19.924-1.2243 5.775-5.9708 25.8-10.548 44.5-4.577 18.7-8.618 36.025-8.98 38.5-1.8237 12.47 6.4282 14.611 17.558 4.5558 3.8939-3.5179 6.6434-3.8111 9.009-0.9607 2.8619 3.4485-5.1212 13.146-17.421 21.162-25.44 16.58-48.667 9.7329-49.017-14.45-0.095-6.5729 0.061-6.589-7.1724 0.7417-18.525 18.775-40.161 26.899-56.264 21.126zm314.14 0.3686c-41.539-11.709-36.519-77.041 9.0667-118 28.48-25.59 52.691-32.94 78.953-23.969l7.8693 2.6881 9.1307-2.582c11.524-3.2587 19.606-5.0375 20.198-4.4455 0.4969 0.4969-3.7518 19.868-11.134 50.767-2.5626 10.725-5.9508 25.125-7.5293 32-1.5786 6.875-3.7775 16.408-4.8865 21.184-3.1769 13.682-1.6796 22.816 3.74 22.816 1.3465 0 10.464-5.9389 13.498-8.7924 6.8424-6.4347 11.401 1.2521 5.098 8.5964-25.969 30.26-65.611 27.701-65.543-4.2304l0.017-8.0736-2.129 3c-15.311 21.576-39.186 33.882-56.348 29.044zm40.326-27.07c12.793-6.3751 19.18-16.703 25.648-41.474 13.967-53.491 14.402-59.043 4.9695-63.539-14.143-6.7416-31.635 3.1593-43.449 24.594-25.051 45.448-17.092 95.331 12.831 80.419zm300.55 27.072c-62.747-14.307-57.306-103.48 8.2752-135.62 31.616-15.495 67.462-12.005 77.004 7.4971 13.172 26.922-18.396 54.408-75.692 65.904l-11.297 2.2669 0.3363 3.9028c3.1174 36.184 45.288 44.376 73.032 14.187 2.2564-2.4551 2.5365-2.5144 5.25-1.1112 3.7801 1.9548 3.6282 3.2163-1.1536 9.5805-19.926 26.52-49.238 39.443-75.755 33.397zm16.275-74.874c26.379-9.4818 40.918-26.094 39.221-44.813-2.043-22.53-31.521-18.93-45.189 5.5201-6.2306 11.145-14.205 40.104-12.017 43.644 0.5067 0.8199 9.9695-1.4691 17.986-4.3506zm-483.99 72.114c-0.5072-1.4474-3.584-18.466-9.9949-55.286-7.1104-40.837-9.1397-50.746-11.53-56.303-3.7239-8.6563-7.7837-9.4331-14.097-2.6972-5.1259 5.4689-5.3487 5.4862-7.837 0.6087l-1.9852-3.8913 8.7774-8.4614c12.213-11.773 20.974-16.132 32.483-16.16 17.506-0.043 20.496 5.1589 26.678 46.404 3.3817 22.565 9.8312 61.172 10.297 61.638 0.1747 0.1747 4.56-5.6349 9.7452-12.91 25.178-35.327 29.91-49.873 21.874-67.235-5.6591-12.227-4.6682-17.211 4.7352-23.82 19.242-13.524 33.415 7.1598 23.99 35.012-5.2229 15.435-22.178 40.231-58.338 85.316l-14.837 18.5-9.7545 0.2865c-7.2581 0.2131-9.8698-0.043-10.205-1zm-143.51-192.28c-41.19-9.3202-55.433-37.134-31.808-62.113l4.9707-5.2557-2.8919-1.4955c-3.9046-2.0191-9.2167-7.578-9.9202-10.381-1.3111-5.2238 8.1832-18.132 19.024-25.865l2.8742-2.0501-5.1861-5.1861c-23.654-23.654-10.238-62.253 24.938-71.743 7.6268-2.0576 30.727-2.4181 38-0.5929 2.6977 0.677 14.012 1.1391 28.25 1.1538l23.75 0.024v22h-20.892l2.0152 5.75c3.0534 8.7123 2.3944 24.638-1.3344 32.25-9.5054 19.405-30.748 29.25-59.5 27.576l-11.211-0.6527-2.4353 3.7884c-1.3393 2.0837-2.0998 4.148-1.6899 4.5874 1.2286 1.3171 18.583 4.4628 34.047 6.1718 35.162 3.8856 49.089 12.95 52.05 33.876 3.065 21.661-11.479 39.897-37.59 47.133-8.5446 2.3677-36.716 3.0024-45.459 1.0241zm29.566-23.59c12.617-2.3103 20.816-9.6121 20.682-18.419-0.1603-10.608-6.3442-13.885-31.352-16.614l-18.194-1.9851-3.3624 3.2589c-19.409 18.812 0.4185 39.584 32.226 33.759zm1.9111-99.029c17.581-4.8809 17.433-32.928-0.2001-37.824-20.801-5.7766-38.473 8.2033-33.088 26.176 3.0189 10.076 18.915 15.639 33.288 11.648zm130.02 68.218c-72.138-9.1642-75.971-116.04-4.6846-130.61 45.541-9.3087 82.145 18.572 82.178 62.594l0.01 9.5892-27.75 0.6589c-15.262 0.3624-37.715 0.6597-49.894 0.6608h-22.144l0.8651 3.8505c6.348 28.253 45.101 37.85 58.836 14.571l2.0185-3.4212h35.202l-0.7012 2.25c-8.7172 27.973-38.991 44.292-73.934 39.852zm42.499-80.853c-4e-4 -0.9625-1.2801-4.4541-2.8436-7.7591-12.339-26.081-52.064-21.705-60.191 6.6311l-0.8254 2.878h31.93c29.743 0 31.93-0.1198 31.929-1.75zm274 80.737c-40.002-4.7119-65.284-43.142-54.985-83.577 15.674-61.54 112.39-65.735 130.51-5.66l1.2815 4.25h-35.753l-1.6105-3.1143c-10.658-20.611-42.12-22.016-54.769-2.4452-10.918 16.891-8.4758 42.469 5.2373 54.858 16.224 14.658 35.721 12.473 48.337-5.4163l4.2392-6.0112 34.015 0.6289-0.2794 3c-1.0337 11.1-17.1 30.88-30.255 37.25-12.426 6.016-28.885 8.2495-45.966 6.2375zm153.84 0.01c-33.373-5.2981-55.939-33.126-54.62-67.357 1.4952-38.804 29.162-64.679 69.095-64.621 38.248 0.055 63.361 24.258 65.407 63.036 0.6881 13.045 7.468 11.48-51.17 11.808-26.371 0.1474-48.268 0.4658-48.659 0.7074-0.989 0.6113 1.3716 9.0927 3.9156 14.068 10.422 20.383 44.594 22.576 56.341 3.6155l2.0135-3.25h34.972l-0.6875 2.25c-8.6627 28.353-41.393 45.333-76.607 39.743zm45.62-81.243c-6.543-21.83-28.568-30.837-49.487-20.236-6.952 3.5228-15.918 15.451-15.964 21.236-0.01 0.975 7.2652 1.25 33.058 1.25h33.067zm-1070.9 79.317c-1.1792-1.9762-0.54-175.07 0.6466-175.09 0.715-0.01 8.3876-0.1333 17.05-0.2733l15.75-0.2546 0.026 9.5233c0.014 5.2378 0.016 38.886 0 74.773l-0.023 65.25 21.246 0.069c11.686 0.038 30.472 0.1507 41.747 0.25l20.5 0.1807 0.5536 26-58.581 0.067c-32.22 0.037-58.733-0.1883-58.919-0.5zm160.98 0.1342c-0.1656-0.1644 1.0621-3.5394 2.7281-7.5 1.6659-3.9605 4.4982-11.251 6.2939-16.201 1.7958-4.95 6.7143-17.775 10.93-28.5s10.969-28.05 15.008-38.5c13.428-34.747 16.256-41.972 17.81-45.5 1.6526-3.7508 8.9031-22.335 12.875-33l2.4205-6.5 19.759 0.1431c10.868 0.079 19.917 0.3036 20.11 0.5 0.352 0.3582 33.938 84.98 37.45 94.357 1.03 2.75 5.543 14.34 10.029 25.756s9.6613 24.691 11.501 29.5c1.8394 4.8092 4.7406 12.26 6.4472 16.558 1.7066 4.2976 3.103 8.2222 3.103 8.7214 0 1.0193-36.119 0.1577-37.128-0.8856-0.5958-0.6163-4.618-11.025-11.053-28.603-1.6014-4.3743-3.3243-8.4506-3.8287-9.0583-0.6402-0.7715-11.868-1.0874-37.204-1.0467l-36.287 0.058-3.2801 9c-5.1826 14.22-9.1705 24.75-10.587 27.956l-1.3066 2.9563-17.744 0.044c-9.7594 0.024-17.88-0.091-18.045-0.2553zm113.93-68.451c-0.3667-1.2375-2.1559-6.075-3.9759-10.75-10.826-27.808-21.492-56.186-21.492-57.18 0-2.0195-1.2726 0.025-3.0672 4.9267-6.6305 18.112-22.853 62.07-23.435 63.503-0.667 1.6407 0.9545 1.75 25.963 1.75h26.674zm384.9 68.031c-0.2439-0.3954-0.3492-29.083-0.2339-63.75l0.2097-63.031h29.438l0.5711 3.25c0.3141 1.7875 0.8723 6.0625 1.2405 9.5 0.5372 5.0164 2.411 9.1336 2.411 5.2977 0-0.5239 2.2486-3.2011 4.997-5.9494 21.17-21.17 61.873-20.003 78.847 2.26 9.8522 12.922 10.156 14.988 10.156 69.069v44.799l-5.25-0.589c-2.8875-0.3239-10.525-0.5998-16.972-0.6132l-11.722-0.024 0.4937-25.25c0.7591-38.819-0.4358-57.931-4.0352-64.544-10.437-19.177-40.77-16.518-51.337 4.4994-4.8081 9.5636-5.0649 12.207-5.1294 52.795l-0.052 33h-16.595c-9.1271 0-16.794-0.3235-17.038-0.7188zm-547.91-116c2.3276-10.56 11.965-53.084 12.708-56.073l0.9432-3.7938 17.036 0.4632c9.3696 0.2547 17.246 0.6732 17.503 0.93 0.2567 0.2568-1.1535 4.6806-3.1339 9.8306-1.9804 5.1501-5.593 14.539-8.0281 20.864-2.435 6.325-5.9527 15.55-7.8172 20.5l-3.3898 9-26.323 0.5585z" fill="#403eba"/>
 </g>
</svg>
